<!-- Generated by IcoMoon.io -->
<svg version="1.1" xmlns="http://www.w3.org/2000/svg" width="30" height="32" viewBox="0 0 30 32">
<title>aggregate-reports</title>
<path d="M3.81 0.762c0.374 0 0.685 0.27 0.75 0.625l0.012 0.137v25.143h25.143c0.421 0 0.762 0.341 0.762 0.762 0 0.374-0.27 0.685-0.625 0.75l-0.137 0.012h-25.143v2.286c0 0.421-0.341 0.762-0.762 0.762-0.374 0-0.685-0.27-0.75-0.625l-0.012-0.137v-2.286h-2.286c-0.421 0-0.762-0.341-0.762-0.762 0-0.374 0.27-0.685 0.625-0.75l0.137-0.012h2.286v-25.143c0-0.421 0.341-0.762 0.762-0.762zM18.59 14.476c0.621 0 1.134 0.465 1.21 1.066l0.009 0.153v6.705c0 0.621-0.465 1.134-1.066 1.21l-0.153 0.009h-2.133c-0.621 0-1.134-0.465-1.21-1.066l-0.009-0.153v-6.705c0-0.621 0.465-1.134 1.066-1.21l0.153-0.009h2.133zM10.971 17.524c0.621 0 1.134 0.465 1.21 1.066l0.009 0.153v3.657c0 0.621-0.465 1.134-1.066 1.21l-0.153 0.009h-2.133c-0.621 0-1.134-0.465-1.21-1.066l-0.010-0.153v-3.657c0-0.621 0.465-1.134 1.066-1.21l0.153-0.009h2.133zM26.21 11.429c0.621 0 1.134 0.465 1.21 1.066l0.009 0.153v9.752c0 0.621-0.465 1.134-1.066 1.21l-0.153 0.009h-2.133c-0.621 0-1.134-0.465-1.21-1.066l-0.009-0.153v-9.752c0-0.621 0.465-1.134 1.066-1.21l0.153-0.009h2.133zM18.286 16h-1.524v6.095h1.524v-6.095zM10.667 19.048h-1.524v3.048h1.524v-3.048zM25.905 12.952h-1.524v9.143h1.524v-9.143zM21.958 2.298l0.137-0.012 4.653 0.004 0.142 0.029 0.13 0.053 0.107 0.068 0.078 0.068 0.057 0.064 0.064 0.094 0.044 0.090 0.032 0.095 0.017 0.085 0.008 0.11v4.571c0 0.421-0.341 0.762-0.762 0.762-0.374 0-0.685-0.27-0.75-0.625l-0.012-0.137v-2.734l-7.080 7.082c-0.265 0.264-0.675 0.294-0.972 0.088l-0.106-0.088-2.509-2.509-6.318 6.319c-0.264 0.264-0.675 0.294-0.972 0.088l-0.106-0.088c-0.264-0.265-0.294-0.675-0.088-0.972l0.088-0.105 6.857-6.857c0.264-0.264 0.675-0.294 0.972-0.088l0.106 0.088 2.509 2.509 6.54-6.542h-2.731c-0.421 0-0.762-0.341-0.762-0.762 0-0.374 0.27-0.685 0.625-0.75z"></path>
</svg>
