<!-- Generated by IcoMoon.io -->
<svg version="1.1" xmlns="http://www.w3.org/2000/svg" width="34" height="32" viewBox="0 0 34 32">
<title>alert</title>
<path fill="#566170" d="M18.381 1.692c0.537 0.276 0.988 0.69 1.309 1.197l0.149 0.261 11.863 23.101c0.85 1.655 0.197 3.685-1.458 4.535-0.381 0.196-0.795 0.316-1.219 0.357l-0.32 0.015h-23.726c-1.86 0-3.368-1.508-3.368-3.368 0-0.428 0.082-0.851 0.239-1.247l0.133-0.291 11.863-23.101c0.85-1.655 2.88-2.308 4.535-1.458zM15.444 3.749l-0.1 0.17-11.863 23.101c-0.122 0.238-0.186 0.502-0.186 0.769 0 0.864 0.65 1.576 1.488 1.673l0.196 0.011h23.726c0.268 0 0.531-0.064 0.769-0.186 0.768-0.395 1.105-1.298 0.809-2.088l-0.080-0.18-11.863-23.101c-0.161-0.313-0.416-0.568-0.729-0.729-0.768-0.395-1.699-0.141-2.168 0.559zM16.842 24.421c0.465 0 0.842 0.377 0.842 0.842s-0.377 0.842-0.842 0.842c-0.465 0-0.842-0.377-0.842-0.842s0.377-0.842 0.842-0.842zM16.842 10.947c0.413 0 0.757 0.298 0.828 0.691l0.014 0.151v8.421c0 0.465-0.377 0.842-0.842 0.842-0.413 0-0.757-0.298-0.829-0.691l-0.014-0.151v-8.421c0-0.465 0.377-0.842 0.842-0.842z"></path>
</svg>
