<!-- Generated by IcoMoon.io -->
<svg version="1.1" xmlns="http://www.w3.org/2000/svg" width="34" height="32" viewBox="0 0 34 32">
<title>checkmark-circle</title>
<path d="M17.143 0c4.557 0.1 8.338 1.653 11.343 4.657s4.557 6.786 4.657 11.343c-0.1 4.557-1.653 8.338-4.657 11.343s-6.785 4.557-11.343 4.657c-4.557-0.1-8.338-1.653-11.343-4.657s-4.557-6.785-4.657-11.343c0.1-4.557 1.653-8.338 4.657-11.343s6.786-4.557 11.343-4.657zM17.143 2.286c-3.906 0.086-7.147 1.416-9.722 3.992s-3.906 5.816-3.992 9.722c0.086 3.906 1.416 7.147 3.992 9.722s5.816 3.906 9.722 3.992c3.906-0.086 7.147-1.416 9.722-3.992s3.906-5.816 3.992-9.722c-0.086-3.906-1.416-7.147-3.992-9.722s-5.816-3.906-9.722-3.992zM23.445 9.306c0.481 0.289 0.673 0.875 0.482 1.382l-0.090 0.186-6.857 11.429c-0.344 0.574-1.091 0.719-1.621 0.359l-0.168-0.139-4.571-4.571c-0.446-0.446-0.446-1.17 0-1.616 0.397-0.397 1.013-0.441 1.458-0.132l0.158 0.132 3.535 3.535 6.106-10.172c0.325-0.541 1.027-0.717 1.568-0.392z"></path>
</svg>
