<!-- Generated by IcoMoon.io -->
<svg version="1.1" xmlns="http://www.w3.org/2000/svg" width="30" height="32" viewBox="0 0 30 32">
<title>dashboard</title>
<path d="M28.632 14.316c0.93 0 1.684 0.754 1.684 1.684v13.474c0 0.93-0.754 1.684-1.684 1.684h-10.105c-0.93 0-1.684-0.754-1.684-1.684v-13.474c0-0.93 0.754-1.684 1.684-1.684h10.105zM11.789 21.053c0.93 0 1.684 0.754 1.684 1.684v6.737c0 0.93-0.754 1.684-1.684 1.684h-10.105c-0.93 0-1.684-0.754-1.684-1.684v-6.737c0-0.93 0.754-1.684 1.684-1.684h10.105zM27.789 16h-8.421c-0.465 0-0.842 0.377-0.842 0.842v11.789c0 0.465 0.377 0.842 0.842 0.842h8.421c0.465 0 0.842-0.377 0.842-0.842v-11.789c0-0.465-0.377-0.842-0.842-0.842zM10.947 22.737h-8.421c-0.465 0-0.842 0.377-0.842 0.842v5.053c0 0.465 0.377 0.842 0.842 0.842h8.421c0.465 0 0.842-0.377 0.842-0.842v-5.053c0-0.465-0.377-0.842-0.842-0.842zM11.789 0.842c0.93 0 1.684 0.754 1.684 1.684v13.474c0 0.93-0.754 1.684-1.684 1.684h-10.105c-0.93 0-1.684-0.754-1.684-1.684v-13.474c0-0.93 0.754-1.684 1.684-1.684h10.105zM10.947 2.526h-8.421c-0.465 0-0.842 0.377-0.842 0.842v11.789c0 0.465 0.377 0.842 0.842 0.842h8.421c0.465 0 0.842-0.377 0.842-0.842v-11.789c0-0.465-0.377-0.842-0.842-0.842zM28.632 0.842c0.93 0 1.684 0.754 1.684 1.684v6.737c0 0.93-0.754 1.684-1.684 1.684h-10.105c-0.93 0-1.684-0.754-1.684-1.684v-6.737c0-0.93 0.754-1.684 1.684-1.684h10.105zM27.789 2.526h-8.421c-0.465 0-0.842 0.377-0.842 0.842v5.053c0 0.465 0.377 0.842 0.842 0.842h8.421c0.465 0 0.842-0.377 0.842-0.842v-5.053c0-0.465-0.377-0.842-0.842-0.842z"></path>
</svg>
