<!-- Generated by IcoMoon.io -->
<svg version="1.1" xmlns="http://www.w3.org/2000/svg" width="35" height="32" viewBox="0 0 35 32">
<title>domain</title>
<path d="M17.604 0.8c7.409 0 13.513 5.6 14.309 12.8l-1.611 0c-0.139-1.118-0.423-2.191-0.831-3.2l-4.003 0.001c0.415 1.064 0.692 2.13 0.83 3.2l-1.616-0.001c-0.158-1.062-0.474-2.129-0.948-3.199l-5.333-0.001-0 3.2h-1.6l0-3.2-5.333 0.001c-0.474 1.070-0.79 2.137-0.948 3.199l-1.616 0.001c0.138-1.070 0.415-2.137 0.83-3.2l-4.003-0.001c-0.409 1.009-0.692 2.082-0.831 3.2l-1.611-0c0.78-7.062 6.668-12.585 13.888-12.794l0.428-0.006zM15.29 2.608l-0.033 0.006c-3.737 0.691-6.905 3.006-8.744 6.186l3.95 0.002c1.084-2.077 2.695-4.141 4.827-6.193zM16.799 3.382c-1.95 1.817-3.45 3.623-4.506 5.418l4.507-0-0.001-5.418zM18.403 3.384l-0.003 5.416 4.507 0c-1.056-1.794-2.556-3.6-4.504-5.416zM19.908 2.608l0.202 0.195c2.034 1.988 3.578 3.988 4.628 5.999l3.95-0.002c-1.845-3.189-5.027-5.509-8.779-6.192zM32.8 15.2c1.325 0 2.4 1.075 2.4 2.4v11.2c0 1.325-1.075 2.4-2.4 2.4h-30.4c-1.325 0-2.4-1.075-2.4-2.4v-11.2c0-1.325 1.075-2.4 2.4-2.4h30.4zM32.8 16.8h-30.4c-0.442 0-0.8 0.358-0.8 0.8v11.2c0 0.442 0.358 0.8 0.8 0.8h30.4c0.442 0 0.8-0.358 0.8-0.8v-11.2c0-0.442-0.358-0.8-0.8-0.8zM11.453 20.041c0.419 0.14 0.646 0.593 0.506 1.012l-1.6 4.8c-0.236 0.707-1.225 0.736-1.502 0.044l-0.857-2.144-0.857 2.144c-0.257 0.643-1.128 0.663-1.44 0.097l-0.061-0.141-1.6-4.8c-0.14-0.419 0.087-0.872 0.506-1.012s0.872 0.087 1.012 0.506l0.908 2.727 0.79-1.971c0.249-0.623 1.085-0.667 1.418-0.133l0.067 0.133 0.788 1.971 0.91-2.727c0.14-0.419 0.593-0.646 1.012-0.506zM21.053 20.041c0.419 0.14 0.646 0.593 0.506 1.012l-1.6 4.8c-0.236 0.707-1.225 0.736-1.502 0.044l-0.857-2.144-0.857 2.144c-0.257 0.643-1.128 0.663-1.44 0.097l-0.062-0.141-1.6-4.8c-0.14-0.419 0.087-0.872 0.506-1.012s0.872 0.087 1.012 0.506l0.908 2.727 0.79-1.971c0.249-0.623 1.085-0.667 1.418-0.133l0.067 0.133 0.788 1.971 0.91-2.727c0.14-0.419 0.593-0.646 1.012-0.506zM30.653 20.041c0.419 0.14 0.646 0.593 0.506 1.012l-1.6 4.8c-0.236 0.707-1.225 0.736-1.502 0.044l-0.857-2.144-0.857 2.144c-0.257 0.643-1.128 0.663-1.44 0.097l-0.061-0.141-1.6-4.8c-0.14-0.419 0.087-0.872 0.506-1.012s0.872 0.087 1.012 0.506l0.908 2.727 0.79-1.971c0.249-0.623 1.085-0.667 1.418-0.133l0.067 0.133 0.788 1.971 0.91-2.727c0.14-0.419 0.593-0.646 1.012-0.506z"></path>
</svg>
