<!-- Generated by IcoMoon.io -->
<svg version="1.1" xmlns="http://www.w3.org/2000/svg" width="30" height="32" viewBox="0 0 30 32">
<title>easyspf</title>
<path d="M25.143 20.571c2.946 0 5.333 2.388 5.333 5.333s-2.388 5.333-5.333 5.333c-2.946 0-5.333-2.388-5.333-5.333s2.388-5.333 5.333-5.333zM25.143 22.095c-2.104 0-3.81 1.706-3.81 3.81s1.706 3.81 3.81 3.81c2.104 0 3.81-1.706 3.81-3.81s-1.706-3.81-3.81-3.81zM8.381 0.762c1.262 0 2.286 1.023 2.286 2.286v6.095c0 1.262-1.023 2.286-2.286 2.286h-2.286v4.571h9.589l-1.747-1.747c-0.298-0.298-0.298-0.78 0-1.078 0.264-0.264 0.675-0.294 0.972-0.088l0.105 0.088 3.048 3.048c0.264 0.265 0.294 0.675 0.088 0.972l-0.088 0.106-3.048 3.048c-0.298 0.297-0.78 0.297-1.078 0-0.264-0.265-0.294-0.675-0.088-0.972l0.088-0.106 1.746-1.747h-9.588l-0.002 7.619h9.591l-1.747-1.747c-0.298-0.298-0.298-0.78 0-1.078 0.264-0.264 0.675-0.294 0.972-0.088l0.105 0.088 3.048 3.048c0.264 0.265 0.294 0.675 0.088 0.972l-0.088 0.106-3.048 3.048c-0.298 0.297-0.78 0.297-1.078 0-0.264-0.265-0.294-0.675-0.088-0.972l0.088-0.106 1.746-1.747h-10.35c-0.374 0-0.685-0.27-0.75-0.625l-0.012-0.137v-14.476h-2.286c-1.262 0-2.286-1.023-2.286-2.286v-6.095c0-1.262 1.023-2.286 2.286-2.286h6.095zM25.143 11.429c2.946 0 5.333 2.388 5.333 5.333 0 1.366-0.514 2.612-1.358 3.555-0.427-0.305-0.891-0.562-1.384-0.763 0.749-0.695 1.219-1.689 1.219-2.792 0-2.104-1.706-3.81-3.81-3.81s-3.81 1.706-3.81 3.81c0 1.104 0.469 2.098 1.219 2.793-0.493 0.2-0.958 0.457-1.385 0.762-0.844-0.943-1.358-2.189-1.358-3.555 0-2.946 2.388-5.333 5.333-5.333zM8.381 2.286h-6.095c-0.374 0-0.685 0.27-0.75 0.625l-0.012 0.137v6.095c0 0.374 0.27 0.685 0.625 0.75l0.137 0.012h6.095c0.374 0 0.685-0.27 0.75-0.625l0.012-0.137v-6.095c0-0.374-0.27-0.685-0.625-0.75l-0.137-0.012z"></path>
</svg>
