<!-- Generated by IcoMoon.io -->
<svg version="1.1" xmlns="http://www.w3.org/2000/svg" width="30" height="32" viewBox="0 0 30 32">
<title>easydmarc</title>
<path fill="#1b2c74" d="M30.478 7.429c-0.087 0.051-0.078 0.153-0.119 0.229-0.245 0.457-0.615 0.72-1.141 0.721-1.705 0.004-3.41 0.004-5.114 0-0.164 0-0.327-0.032-0.478-0.095s-0.289-0.155-0.405-0.272c-0.116-0.117-0.207-0.255-0.269-0.407s-0.093-0.315-0.091-0.479c-0.005-1.705-0.005-3.409 0-5.114-0.001-0.164 0.030-0.326 0.093-0.478s0.154-0.289 0.27-0.405 0.254-0.208 0.405-0.27c0.152-0.062 0.314-0.094 0.478-0.093 1.703-0.005 3.408-0.005 5.114 0 0.537 0 0.913 0.272 1.152 0.748 0.034 0.067 0.021 0.161 0.106 0.202l-0.001 5.714z"></path>
<path fill="#1b2c74" d="M30.478 18.857c-0.087 0.051-0.078 0.153-0.119 0.229-0.245 0.457-0.615 0.719-1.141 0.72-1.705 0.004-3.41 0.004-5.114 0-0.164 0-0.327-0.032-0.478-0.095s-0.289-0.155-0.405-0.272c-0.116-0.116-0.207-0.255-0.269-0.407s-0.093-0.315-0.091-0.479c-0.005-1.704-0.005-3.409 0-5.113-0.001-0.164 0.030-0.327 0.092-0.478s0.153-0.29 0.269-0.406c0.116-0.116 0.253-0.208 0.405-0.271s0.314-0.094 0.478-0.094c1.704-0.005 3.409-0.005 5.114 0 0.537 0 0.913 0.272 1.152 0.747 0.034 0.067 0.021 0.162 0.106 0.202l0.001 5.716z"></path>
<path fill="#1b2c74" d="M0.953 31.238c-0.041-0.084-0.134-0.072-0.202-0.106-0.477-0.238-0.746-0.615-0.747-1.153-0.005-1.705-0.005-3.409 0-5.113-0.001-0.164 0.031-0.327 0.094-0.479s0.155-0.29 0.272-0.405c0.117-0.116 0.255-0.207 0.407-0.269s0.315-0.093 0.479-0.091c1.704-0.005 3.409-0.005 5.113 0 0.164-0.002 0.327 0.029 0.479 0.091s0.29 0.153 0.407 0.269c0.117 0.116 0.209 0.253 0.272 0.405s0.095 0.314 0.095 0.478c0.006 1.705 0.006 3.409 0 5.114 0 0.537-0.273 0.913-0.747 1.153-0.067 0.034-0.162 0.021-0.202 0.106h-5.719z"></path>
<path fill="#1b2c74" d="M12.382 31.238c-0.041-0.084-0.135-0.072-0.202-0.106-0.477-0.239-0.745-0.615-0.747-1.153-0.005-1.705-0.005-3.409 0-5.113-0.001-0.164 0.031-0.326 0.094-0.478s0.155-0.289 0.271-0.405 0.254-0.207 0.406-0.269c0.152-0.062 0.314-0.093 0.478-0.092 1.705-0.005 3.41-0.005 5.114 0 0.164-0.002 0.327 0.029 0.479 0.091s0.29 0.153 0.407 0.269c0.117 0.116 0.209 0.253 0.272 0.405s0.095 0.314 0.095 0.478c0.006 1.705 0.006 3.409 0 5.114 0 0.537-0.273 0.913-0.748 1.153-0.067 0.034-0.161 0.021-0.202 0.106h-5.716z"></path>
<path fill="#00a9e0" d="M23.809 31.238c-0.051-0.086-0.153-0.078-0.229-0.119-0.457-0.245-0.719-0.614-0.72-1.14-0.004-1.704-0.004-3.408 0-5.112-0.001-0.164 0.031-0.326 0.093-0.478s0.154-0.289 0.27-0.405c0.116-0.116 0.254-0.208 0.405-0.27s0.314-0.094 0.478-0.093c1.704-0.005 3.408-0.005 5.112 0 0.537 0 0.912 0.272 1.152 0.748 0.034 0.067 0.021 0.161 0.106 0.202v5.715c-0.083 0.217-0.211 0.415-0.375 0.579s-0.362 0.292-0.579 0.375l-5.712-0.001z"></path>
<path fill="#1b2c74" d="M3.792 8.38c-0.835 0-1.666 0.003-2.499 0-0.753-0.004-1.29-0.542-1.291-1.297-0.002-1.676-0.002-3.352 0-5.029 0.001-0.753 0.54-1.289 1.295-1.293 1.677 0 3.353 0.001 5.029 0.003 0.752 0 1.29 0.54 1.291 1.295 0.003 1.676 0.003 3.352 0 5.029 0 0.751-0.542 1.289-1.295 1.291-0.843 0.003-1.687 0.001-2.529 0.001z"></path>
<path fill="#1b2c74" d="M11.429 4.579c0-0.823 0-1.646 0-2.47 0.001-0.817 0.521-1.344 1.332-1.347 1.657 0 3.313 0 4.97 0 0.775 0 1.312 0.531 1.316 1.3 0.002 1.677 0.002 3.353 0 5.029 0 0.75-0.544 1.285-1.3 1.286-1.677 0.002-3.353 0.002-5.029 0-0.75 0-1.283-0.544-1.286-1.3-0.006-0.828-0.004-1.663-0.004-2.498z"></path>
<path fill="#1b2c74" d="M3.837 12.192c0.823 0 1.647 0 2.47 0 0.775 0 1.307 0.537 1.308 1.307 0.002 1.666 0.002 3.333 0 5 0 0.772-0.537 1.307-1.308 1.308-1.666 0.002-3.333 0.002-4.999 0-0.775 0-1.307-0.537-1.308-1.308 0-1.666 0-3.333 0-4.999 0-0.775 0.537-1.306 1.308-1.308 0.843-0.002 1.686 0 2.529 0z"></path>
<path fill="#1b2c74" d="M19.046 16.019c0 0.835 0.003 1.666 0 2.5-0.003 0.751-0.543 1.289-1.297 1.29-1.677 0.002-3.353 0.002-5.029 0-0.751 0-1.288-0.542-1.289-1.297-0.002-1.676-0.002-3.352 0-5.029 0-0.752 0.541-1.288 1.297-1.289 1.677-0.002 3.353-0.002 5.029 0 0.751 0 1.286 0.541 1.289 1.297 0.002 0.843 0 1.686 0 2.529z"></path>
</svg>
