<!-- Generated by IcoMoon.io -->
<svg version="1.1" xmlns="http://www.w3.org/2000/svg" width="30" height="32" viewBox="0 0 30 32">
<title>email-senders</title>
<path d="M28.343 14.476c1.178 0 2.133 0.955 2.133 2.133v12.495c0 1.178-0.955 2.133-2.133 2.133h-18.59c-1.178 0-2.133-0.955-2.133-2.133v-12.495c0-1.178 0.955-2.133 2.133-2.133h18.59zM21.8 23.639l-1.718 1.587c-0.584 0.539-1.483 0.539-2.067 0l-1.72-1.587-6.075 6.075h17.656l-6.075-6.075zM28.952 17.036l-6.033 5.568 6.033 6.033v-11.601zM9.143 17.038v11.598l6.031-6.031-6.031-5.566zM3.81 19.048c0.421 0 0.762 0.341 0.762 0.762s-0.341 0.762-0.762 0.762h-1.524c-0.421 0-0.762 0.341-0.762 0.762v3.048c0 0.421 0.341 0.762 0.762 0.762h1.524c0.421 0 0.762 0.341 0.762 0.762s-0.341 0.762-0.762 0.762h-1.524c-1.262 0-2.286-1.023-2.286-2.286v-3.048c0-1.262 1.023-2.286 2.286-2.286h1.524zM27.826 16h-17.559l8.78 8.106 8.779-8.106zM3.81 22.095c0.421 0 0.762 0.341 0.762 0.762s-0.341 0.762-0.762 0.762c-0.421 0-0.762-0.341-0.762-0.762s0.341-0.762 0.762-0.762zM25.143 9.905c0.421 0 0.762 0.341 0.762 0.762s-0.341 0.762-0.762 0.762h-22.857c-0.421 0-0.762 0.341-0.762 0.762v3.048c0 0.421 0.341 0.762 0.762 0.762h1.524c0.421 0 0.762 0.341 0.762 0.762s-0.341 0.762-0.762 0.762h-1.524c-1.262 0-2.286-1.023-2.286-2.286v-3.048c0-1.262 1.023-2.286 2.286-2.286h22.857zM3.81 12.952c0.421 0 0.762 0.341 0.762 0.762s-0.341 0.762-0.762 0.762c-0.421 0-0.762-0.341-0.762-0.762s0.341-0.762 0.762-0.762zM23.619 0.762c1.262 0 2.286 1.023 2.286 2.286v3.048c0 1.262-1.023 2.286-2.286 2.286h-21.333c-1.262 0-2.286-1.023-2.286-2.286v-3.048c0-1.262 1.023-2.286 2.286-2.286h21.333zM23.619 2.286h-21.333c-0.374 0-0.685 0.27-0.75 0.625l-0.012 0.137v3.048c0 0.374 0.27 0.685 0.625 0.75l0.137 0.012h21.333c0.374 0 0.685-0.27 0.75-0.625l0.012-0.137v-3.048c0-0.374-0.27-0.685-0.625-0.75l-0.137-0.012zM3.81 3.81c0.421 0 0.762 0.341 0.762 0.762s-0.341 0.762-0.762 0.762c-0.421 0-0.762-0.341-0.762-0.762s0.341-0.762 0.762-0.762zM6.857 3.81c0.421 0 0.762 0.341 0.762 0.762s-0.341 0.762-0.762 0.762c-0.421 0-0.762-0.341-0.762-0.762s0.341-0.762 0.762-0.762zM9.905 3.81c0.421 0 0.762 0.341 0.762 0.762s-0.341 0.762-0.762 0.762c-0.421 0-0.762-0.341-0.762-0.762s0.341-0.762 0.762-0.762z"></path>
</svg>
