<!-- Generated by IcoMoon.io -->
<svg version="1.1" xmlns="http://www.w3.org/2000/svg" width="26" height="32" viewBox="0 0 26 32">
<title>failure-report</title>
<path d="M9.905 3.81c0.421 0 0.762 0.341 0.762 0.762 0 0.374-0.27 0.685-0.625 0.75l-0.137 0.012h-3.048c-1.188 0-2.165 0.907-2.275 2.066l-0.010 0.22v19.938c0 1.188 0.907 2.038 2.066 2.149l0.238 0.010 13.726-0.010c1.182-0.009 2.137-0.882 2.246-2.035l0.010-0.219v-7.642c0-0.421 0.341-0.762 0.762-0.762 0.374 0 0.685 0.27 0.75 0.625l0.012 0.137v7.642c0 2.009-1.555 3.636-3.531 3.779l-13.993 0.010c-2.020 0-3.672-1.446-3.801-3.433l-0.008-0.25v-19.938c0-2.020 1.572-3.672 3.559-3.801l0.25-0.008h3.048zM12.8 0.762c0.421 0 0.762 0.341 0.762 0.762 0 0.374-0.27 0.685-0.625 0.75l-0.137 0.012h-8.99c-1.188 0-2.164 0.906-2.275 2.066l-0.010 0.22v22.857c0 0.421-0.341 0.762-0.762 0.762-0.374 0-0.685-0.27-0.75-0.625l-0.012-0.137v-22.857c0-2.020 1.572-3.672 3.559-3.801l0.25-0.008h8.99zM9.905 20.571c0.421 0 0.762 0.341 0.762 0.762v1.524c0 0.421-0.341 0.762-0.762 0.762s-0.762-0.341-0.762-0.762v-1.524c0-0.421 0.341-0.762 0.762-0.762zM12.952 19.048c0.421 0 0.762 0.341 0.762 0.762v3.048c0 0.421-0.341 0.762-0.762 0.762s-0.762-0.341-0.762-0.762v-3.048c0-0.421 0.341-0.762 0.762-0.762zM16 20.571c0.421 0 0.762 0.341 0.762 0.762v1.524c0 0.421-0.341 0.762-0.762 0.762s-0.762-0.341-0.762-0.762v-1.524c0-0.421 0.341-0.762 0.762-0.762zM19.048 19.048c0.421 0 0.762 0.341 0.762 0.762v3.048c0 0.421-0.341 0.762-0.762 0.762s-0.762-0.341-0.762-0.762v-3.048c0-0.421 0.341-0.762 0.762-0.762zM25.16 3.81l0.056 0.003 0.008 0.001 0.007 0 0.018 0.003-0.012-0.001 0.066 0.011c0.011 0.002 0.022 0.005 0.033 0.008l0.030 0.008c0.025 0.008 0.049 0.016 0.073 0.026 0.019 0.008 0.038 0.017 0.057 0.027s0.036 0.020 0.054 0.031c0.018 0.011 0.036 0.024 0.053 0.037 0.021 0.016 0.041 0.033 0.060 0.050l0.037 0.037 0.026 0.029 0.013 0.015-0.041-0.046 0.046 0.053 0.044 0.061c0.011 0.017 0.021 0.035 0.030 0.053 0.011 0.021 0.021 0.042 0.030 0.063 0.008 0.019 0.015 0.039 0.022 0.060 0.007 0.023 0.014 0.047 0.019 0.070 0.003 0.016 0.007 0.033 0.009 0.050l0.005 0.040 0.003 0.039 0.001 0.031v4.571c0 0.421-0.341 0.762-0.762 0.762-0.374 0-0.685-0.27-0.75-0.625l-0.012-0.137v-2.734l-7.842 7.844c-0.265 0.264-0.675 0.294-0.972 0.088l-0.106-0.088-2.509-2.509-2.509 2.509c-0.264 0.264-0.675 0.294-0.972 0.088l-0.105-0.088c-0.264-0.264-0.294-0.675-0.088-0.972l0.088-0.105 3.048-3.048c0.264-0.264 0.675-0.294 0.972-0.088l0.105 0.088 2.509 2.509 7.302-7.304h-2.731c-0.421 0-0.762-0.341-0.762-0.762 0-0.374 0.27-0.685 0.625-0.75l0.137-0.012 4.589 0z"></path>
</svg>
