<!-- Generated by IcoMoon.io -->
<svg version="1.1" xmlns="http://www.w3.org/2000/svg" width="30" height="32" viewBox="0 0 30 32">
<title>help</title>
<path d="M14.933 1.067c8.248 0 14.933 6.686 14.933 14.933s-6.686 14.933-14.933 14.933c-8.247 0-14.933-6.686-14.933-14.933s6.686-14.933 14.933-14.933zM14.933 3.2c-7.069 0-12.8 5.731-12.8 12.8s5.731 12.8 12.8 12.8c7.069 0 12.8-5.731 12.8-12.8s-5.731-12.8-12.8-12.8zM14.933 22.4c0.589 0 1.067 0.478 1.067 1.067s-0.478 1.067-1.067 1.067c-0.589 0-1.067-0.478-1.067-1.067s0.478-1.067 1.067-1.067zM14.933 7.467c3.014 0 5.333 2.239 5.333 5.333 0 2.223-1.342 3.872-3.818 4.879l-0.449 0.171v1.35c0 0.589-0.478 1.067-1.067 1.067-0.524 0-0.959-0.377-1.049-0.875l-0.017-0.192v-1.349c-0-0.902 0.567-1.706 1.416-2.010 1.983-0.708 2.85-1.694 2.85-3.041 0-1.899-1.348-3.2-3.2-3.2-1.767 0-3.2 1.433-3.2 3.2 0 0.589-0.478 1.067-1.067 1.067s-1.067-0.478-1.067-1.067c0-2.945 2.388-5.333 5.333-5.333z"></path>
</svg>
