<!-- Generated by IcoMoon.io -->
<svg version="1.1" xmlns="http://www.w3.org/2000/svg" width="32" height="32" viewBox="0 0 32 32">
<title>notification</title>
<path d="M28.445 23.211v-8.093c0-5.677-3.884-10.459-9.147-11.898-0.521-1.302-1.794-2.22-3.298-2.22s-2.777 0.918-3.298 2.22c-5.262 1.44-9.147 6.221-9.147 11.898v8.093l-3.035 3.012c-0.165 0.164-0.297 0.358-0.386 0.572s-0.135 0.444-0.135 0.675v1.765c0 0.468 0.187 0.917 0.521 1.248s0.786 0.517 1.257 0.517h28.445c0.471 0 0.924-0.186 1.257-0.517s0.521-0.78 0.521-1.248v-1.765c0-0.232-0.046-0.461-0.135-0.675s-0.221-0.409-0.386-0.572l-3.035-3.012z"></path>
</svg>
