<!-- Generated by IcoMoon.io -->
<svg version="1.1" xmlns="http://www.w3.org/2000/svg" width="36" height="32" viewBox="0 0 36 32">
<title>tools</title>
<path d="M9.778 0.889c2.151 0 3.944 1.527 4.356 3.557l20.533-0.001c0.491 0 0.889 0.398 0.889 0.889s-0.398 0.889-0.889 0.889l-20.534 0.001c-0.412 2.028-2.205 3.555-4.355 3.555s-3.943-1.527-4.355-3.555l-4.534-0.001c-0.491 0-0.889-0.398-0.889-0.889s0.398-0.889 0.889-0.889l4.533 0.001c0.411-2.029 2.205-3.557 4.356-3.557zM9.778 2.667c-1.473 0-2.667 1.194-2.667 2.667s1.194 2.667 2.667 2.667c1.473 0 2.667-1.194 2.667-2.667s-1.194-2.667-2.667-2.667zM25.778 11.556c2.151 0 3.944 1.527 4.356 3.557l4.533-0.001c0.491 0 0.889 0.398 0.889 0.889s-0.398 0.889-0.889 0.889l-4.534 0.001c-0.412 2.028-2.206 3.555-4.355 3.555s-3.943-1.527-4.355-3.555l-20.534-0.001c-0.491 0-0.889-0.398-0.889-0.889s0.398-0.889 0.889-0.889l20.533 0.001c0.411-2.029 2.205-3.557 4.356-3.557zM25.778 13.333c-1.473 0-2.667 1.194-2.667 2.667s1.194 2.667 2.667 2.667c1.473 0 2.667-1.194 2.667-2.667s-1.194-2.667-2.667-2.667zM9.778 22.222c2.151 0 3.944 1.527 4.356 3.557l20.533-0.001c0.491 0 0.889 0.398 0.889 0.889s-0.398 0.889-0.889 0.889l-20.534 0.001c-0.412 2.028-2.205 3.555-4.355 3.555s-3.943-1.527-4.355-3.555l-4.534-0.001c-0.491 0-0.889-0.398-0.889-0.889s0.398-0.889 0.889-0.889l4.533 0.001c0.411-2.029 2.205-3.557 4.356-3.557zM9.778 24c-1.473 0-2.667 1.194-2.667 2.667s1.194 2.667 2.667 2.667c1.473 0 2.667-1.194 2.667-2.667s-1.194-2.667-2.667-2.667z"></path>
</svg>
