<svg width="37" height="29" viewBox="0 0 37 29" fill="none" xmlns="http://www.w3.org/2000/svg">
<path fill-rule="evenodd" clip-rule="evenodd" d="M33.4694 2.30576C35.454 3.47372 36.6025 4.45201 36.9114 5.23398C37.2204 6.01595 36.72 6.80125 35.407 7.58988L32.1966 9.49989L21.4557 3.16852V9.54012L26.8185 12.7279L32.1814 15.919L26.8185 19.1068L21.4557 15.919L16.0928 12.7279L10.7299 9.54012L16.0928 6.35234L21.4557 3.16124V3.16665L24.923 1.10452C25.9203 0.505561 27.0823 0.252669 28.402 0.34584C29.7217 0.439011 31.4108 1.09121 33.4694 2.30576ZM0 15.9186L5.36288 19.1064L10.7291 22.2941L16.092 25.4852L21.4549 28.673L26.8178 25.4852L21.4549 22.2941L16.092 19.1064L10.7291 15.9186V9.53971L5.36288 12.7275L0 15.9186Z" fill="white"/>
</svg>
